<svg width="176" height="176" viewBox="0 0 176 176" fill="none" xmlns="http://www.w3.org/2000/svg">
<circle cx="28.2971" cy="85.1599" r="17.6473" stroke="black" stroke-width="0.7"/>
<circle cx="89.8972" cy="143.26" r="17.6473" stroke="black" stroke-width="0.7"/>
<circle cx="151.497" cy="85.1599" r="17.6473" stroke="black" stroke-width="0.7"/>
<path d="M31.7568 102.815C36.3059 123.867 52.0887 140.737 72.5176 146.838C72.5825 147.105 72.6529 147.369 72.7295 147.63C51.8495 141.559 35.6932 124.392 31.0674 102.936C31.2987 102.9 31.5285 102.859 31.7568 102.815ZM147.182 102.448C147.405 102.512 147.63 102.572 147.856 102.628C143.41 123.797 127.752 140.839 107.38 147.252C107.451 146.989 107.515 146.723 107.574 146.456C127.522 140.016 142.826 123.244 147.182 102.448ZM145.331 69.2798C147.79 75.8163 149.137 82.8974 149.137 90.2935L149.131 91.0649C149.084 94.7828 148.696 98.4185 147.999 101.943C147.771 101.886 147.544 101.824 147.319 101.758C148.05 98.0494 148.437 94.2165 148.437 90.2935C148.437 83.001 147.112 76.0183 144.692 69.5708C144.903 69.4693 145.116 69.3729 145.331 69.2798ZM107.501 33.3735C124.724 38.8365 138.562 51.8999 145.08 68.6245C144.865 68.7172 144.652 68.8138 144.441 68.9146C138.01 52.3804 124.342 39.4618 107.325 34.0522C107.388 33.8279 107.446 33.6013 107.501 33.3735ZM72.5898 33.7261C55.2932 38.8679 41.318 51.7268 34.6562 68.311C34.4381 68.2286 34.2182 68.1498 33.9961 68.0757C40.7374 51.2711 54.8985 38.2427 72.4258 33.0444C72.4761 33.2732 72.5309 33.5006 72.5898 33.7261Z" fill="black"/>
<circle cx="89.8972" cy="29.1599" r="17.6473" stroke="black" stroke-width="0.7"/>
</svg>
